<!DOCTYPE svg PUBLIC "-//W3C//DTD SVG 1.1//EN" "http://www.w3.org/Graphics/SVG/1.1/DTD/svg11.dtd">
<!-- Uploaded to: SVG Repo, www.svgrepo.com, Transformed by: SVG Repo Mixer Tools -->
<svg fill="#f7c94d" width="800px" height="800px" viewBox="0 0 256 256" id="Flat" xmlns="http://www.w3.org/2000/svg">
<g id="SVGRepo_bgCarrier" stroke-width="0"/>
<g id="SVGRepo_tracerCarrier" stroke-linecap="round" stroke-linejoin="round"/>
<g id="SVGRepo_iconCarrier"> <path d="M225.94092,114.89844a15.91968,15.91968,0,0,0-13.46094-3.085,23.99389,23.99389,0,0,1-29.27832-23.14063,15.94771,15.94771,0,0,0-15.87354-15.875A23.99268,23.99268,0,0,1,144.187,43.51953a16.01308,16.01308,0,0,0-15.562-19.51367c-.21729-.001-.43018-.00195-.647-.00195A104,104,0,1,0,231.99463,127.3623v-.001A15.97461,15.97461,0,0,0,225.94092,114.89844ZM75.51465,99.51465a12.0001,12.0001,0,1,1,0,16.9707A12.00062,12.00062,0,0,1,75.51465,99.51465Zm24.9707,72.9707a12.0001,12.0001,0,1,1,0-16.9707A12.00062,12.00062,0,0,1,100.48535,172.48535Zm27.0293-40a12.0001,12.0001,0,1,1,16.9707,0A12.00019,12.00019,0,0,1,127.51465,132.48535Zm36.9707,48a12.0001,12.0001,0,1,1,0-16.9707A12.00062,12.00062,0,0,1,164.48535,180.48535Z"/> </g>
</svg>